<svg xmlns="http://www.w3.org/2000/svg" viewBox="0 0 512 140">
  <defs>
    <style>
      .cls-1 { fill: #0d5c9e; }
    </style>
  </defs>
  <g>
    <!-- M -->
    <path class="cls-1" d="M10,30 L10,110 L25,110 L25,55 L45,85 L55,85 L75,55 L75,110 L90,110 L90,30 L75,30 L50,70 L25,30 Z"/>
    <!-- A -->
    <path class="cls-1" d="M100,110 L115,110 L120,95 L150,95 L155,110 L170,110 L145,30 L125,30 Z M127,82 L135,55 L143,82 Z"/>
    <!-- S -->
    <path class="cls-1" d="M180,45 C180,35 190,30 205,30 C220,30 230,35 230,45 L245,45 C245,25 230,20 205,20 C180,20 165,25 165,45 C165,65 180,68 205,72 C220,75 230,77 230,87 C230,97 220,102 205,102 C190,102 180,97 180,87 L165,87 C165,107 180,112 205,112 C230,112 245,107 245,87 C245,67 230,64 205,60 C190,57 180,55 180,45 Z"/>
    <!-- S (curved) -->
    <path class="cls-1" d="M255,50 Q255,30 275,25 Q295,20 310,30 Q320,40 320,55 Q320,70 310,80 L310,82 Q320,92 320,107 Q320,122 310,127 Q295,132 275,127 Q255,122 255,102 L270,102 Q270,112 280,115 Q290,118 300,115 Q310,112 310,102 Q310,92 300,87 L290,87 L290,75 L300,75 Q310,70 310,60 Q310,50 300,47 Q290,44 280,47 Q270,50 270,60 L255,60 Q255,50 255,50 Z"/>
    <!-- E -->
    <path class="cls-1" d="M330,30 L330,110 L395,110 L395,98 L345,98 L345,75 L390,75 L390,63 L345,63 L345,42 L395,42 L395,30 Z"/>
    <!-- Y -->
    <path class="cls-1" d="M425,30 L450,65 L475,30 L492,30 L457,80 L457,110 L443,110 L443,80 L408,30 Z"/>
    <!-- A -->
    <path class="cls-1" d="M10,130 L15,130 L17,125 L28,125 L30,130 L35,130 L25,115 L20,115 Z M19,122 L22.5,117 L26,122 Z"/>
    <!-- P -->
    <path class="cls-1" d="M40,115 L40,130 L45,130 L45,124 L50,124 Q55,124 55,119 Q55,115 50,115 Z M45,118 L45,121 L50,121 Q52,121 52,119 Q52,118 50,118 Z"/>
    <!-- I -->
    <path class="cls-1" d="M60,115 L60,130 L65,130 L65,115 Z"/>
  </g>
</svg>

